<svg id="visual" viewBox="0 0 1920 1080" width="1920" height="1080" xmlns="http://www.w3.org/2000/svg" xmlns:xlink="http://www.w3.org/1999/xlink" version="1.1"><rect x="0" y="0" width="1920" height="1080" fill="#ffffff"></rect><path d="M413 0L399 25.7C385 51.3 357 102.7 367 154.2C377 205.7 425 257.3 438.3 308.8C451.7 360.3 430.3 411.7 426.2 463C422 514.3 435 565.7 422 617C409 668.3 370 719.7 350.2 771.2C330.3 822.7 329.7 874.3 322.8 925.8C316 977.3 303 1028.7 296.5 1054.3L290 1080L0 1080L0 1054.3C0 1028.7 0 977.3 0 925.8C0 874.3 0 822.7 0 771.2C0 719.7 0 668.3 0 617C0 565.7 0 514.3 0 463C0 411.7 0 360.3 0 308.8C0 257.3 0 205.7 0 154.2C0 102.7 0 51.3 0 25.7L0 0Z" fill="#058c42"></path><path d="M177 0L212.7 25.7C248.3 51.3 319.7 102.7 327.3 154.2C335 205.7 279 257.3 275.8 308.8C272.7 360.3 322.3 411.7 328.8 463C335.3 514.3 298.7 565.7 271 617C243.3 668.3 224.7 719.7 206.8 771.2C189 822.7 172 874.3 203 925.8C234 977.3 313 1028.7 352.5 1054.3L392 1080L0 1080L0 1054.3C0 1028.7 0 977.3 0 925.8C0 874.3 0 822.7 0 771.2C0 719.7 0 668.3 0 617C0 565.7 0 514.3 0 463C0 411.7 0 360.3 0 308.8C0 257.3 0 205.7 0 154.2C0 102.7 0 51.3 0 25.7L0 0Z" fill="#0a6935"></path><path d="M236 0L231.3 25.7C226.7 51.3 217.3 102.7 218.3 154.2C219.3 205.7 230.7 257.3 219 308.8C207.3 360.3 172.7 411.7 158.2 463C143.7 514.3 149.3 565.7 166.5 617C183.7 668.3 212.3 719.7 220.5 771.2C228.7 822.7 216.3 874.3 196.7 925.8C177 977.3 150 1028.7 136.5 1054.3L123 1080L0 1080L0 1054.3C0 1028.7 0 977.3 0 925.8C0 874.3 0 822.7 0 771.2C0 719.7 0 668.3 0 617C0 565.7 0 514.3 0 463C0 411.7 0 360.3 0 308.8C0 257.3 0 205.7 0 154.2C0 102.7 0 51.3 0 25.7L0 0Z" fill="#0e4727"></path><path d="M47 0L56.3 25.7C65.7 51.3 84.3 102.7 106.3 154.2C128.3 205.7 153.7 257.3 147.5 308.8C141.3 360.3 103.7 411.7 84.7 463C65.7 514.3 65.3 565.7 77.3 617C89.3 668.3 113.7 719.7 109.7 771.2C105.7 822.7 73.3 874.3 68.2 925.8C63 977.3 85 1028.7 96 1054.3L107 1080L0 1080L0 1054.3C0 1028.7 0 977.3 0 925.8C0 874.3 0 822.7 0 771.2C0 719.7 0 668.3 0 617C0 565.7 0 514.3 0 463C0 411.7 0 360.3 0 308.8C0 257.3 0 205.7 0 154.2C0 102.7 0 51.3 0 25.7L0 0Z" fill="#0d2818"></path></svg>